<svg id="visual" viewBox="0 0 960 540" width="960" height="540" xmlns="http://www.w3.org/2000/svg" xmlns:xlink="http://www.w3.org/1999/xlink" version="1.1"><rect x="0" y="0" width="960" height="540" fill="#e2e8f0"></rect><path d="M0 208L17.8 210C35.7 212 71.3 216 106.8 213.3C142.3 210.7 177.7 201.3 213.2 197.2C248.7 193 284.3 194 320 202.5C355.7 211 391.3 227 426.8 239.3C462.3 251.7 497.7 260.3 533.2 260.3C568.7 260.3 604.3 251.7 640 248.8C675.7 246 711.3 249 746.8 241.8C782.3 234.7 817.7 217.3 853.2 210.3C888.7 203.3 924.3 206.7 942.2 208.3L960 210L960 541L942.2 541C924.3 541 888.7 541 853.2 541C817.7 541 782.3 541 746.8 541C711.3 541 675.7 541 640 541C604.3 541 568.7 541 533.2 541C497.7 541 462.3 541 426.8 541C391.3 541 355.7 541 320 541C284.3 541 248.7 541 213.2 541C177.7 541 142.3 541 106.8 541C71.3 541 35.7 541 17.8 541L0 541Z" fill="#e2e8f0"></path><path d="M0 274L17.8 269.5C35.7 265 71.3 256 106.8 263.8C142.3 271.7 177.7 296.3 213.2 308.3C248.7 320.3 284.3 319.7 320 308.3C355.7 297 391.3 275 426.8 274.7C462.3 274.3 497.7 295.7 533.2 302C568.7 308.3 604.3 299.7 640 298.2C675.7 296.7 711.3 302.3 746.8 306.2C782.3 310 817.7 312 853.2 309.7C888.7 307.3 924.3 300.7 942.2 297.3L960 294L960 541L942.2 541C924.3 541 888.7 541 853.2 541C817.7 541 782.3 541 746.8 541C711.3 541 675.7 541 640 541C604.3 541 568.7 541 533.2 541C497.7 541 462.3 541 426.8 541C391.3 541 355.7 541 320 541C284.3 541 248.7 541 213.2 541C177.7 541 142.3 541 106.8 541C71.3 541 35.7 541 17.8 541L0 541Z" fill="#bbd1f4"></path><path d="M0 304L17.8 306.2C35.7 308.3 71.3 312.7 106.8 319.7C142.3 326.7 177.7 336.3 213.2 337.2C248.7 338 284.3 330 320 323.7C355.7 317.3 391.3 312.7 426.8 315.7C462.3 318.7 497.7 329.3 533.2 328.5C568.7 327.7 604.3 315.3 640 307.3C675.7 299.3 711.3 295.7 746.8 305.2C782.3 314.7 817.7 337.3 853.2 345C888.7 352.7 924.3 345.3 942.2 341.7L960 338L960 541L942.2 541C924.3 541 888.7 541 853.2 541C817.7 541 782.3 541 746.8 541C711.3 541 675.7 541 640 541C604.3 541 568.7 541 533.2 541C497.7 541 462.3 541 426.8 541C391.3 541 355.7 541 320 541C284.3 541 248.7 541 213.2 541C177.7 541 142.3 541 106.8 541C71.3 541 35.7 541 17.8 541L0 541Z" fill="#98b9f6"></path><path d="M0 363L17.8 364.8C35.7 366.7 71.3 370.3 106.8 367.5C142.3 364.7 177.7 355.3 213.2 349.3C248.7 343.3 284.3 340.7 320 343.2C355.7 345.7 391.3 353.3 426.8 355.7C462.3 358 497.7 355 533.2 357.5C568.7 360 604.3 368 640 366.7C675.7 365.3 711.3 354.7 746.8 355C782.3 355.3 817.7 366.7 853.2 371C888.7 375.3 924.3 372.7 942.2 371.3L960 370L960 541L942.2 541C924.3 541 888.7 541 853.2 541C817.7 541 782.3 541 746.8 541C711.3 541 675.7 541 640 541C604.3 541 568.7 541 533.2 541C497.7 541 462.3 541 426.8 541C391.3 541 355.7 541 320 541C284.3 541 248.7 541 213.2 541C177.7 541 142.3 541 106.8 541C71.3 541 35.7 541 17.8 541L0 541Z" fill="#7a9ff7"></path><path d="M0 438L17.8 429.2C35.7 420.3 71.3 402.7 106.8 396.2C142.3 389.7 177.7 394.3 213.2 396C248.7 397.7 284.3 396.3 320 401.5C355.7 406.7 391.3 418.3 426.8 423.7C462.3 429 497.7 428 533.2 422C568.7 416 604.3 405 640 398.8C675.7 392.7 711.3 391.3 746.8 398.8C782.3 406.3 817.7 422.7 853.2 430.3C888.7 438 924.3 437 942.2 436.5L960 436L960 541L942.2 541C924.3 541 888.7 541 853.2 541C817.7 541 782.3 541 746.8 541C711.3 541 675.7 541 640 541C604.3 541 568.7 541 533.2 541C497.7 541 462.3 541 426.8 541C391.3 541 355.7 541 320 541C284.3 541 248.7 541 213.2 541C177.7 541 142.3 541 106.8 541C71.3 541 35.7 541 17.8 541L0 541Z" fill="#6284f5"></path><path d="M0 430L17.8 432.3C35.7 434.7 71.3 439.3 106.8 443C142.3 446.7 177.7 449.3 213.2 447.5C248.7 445.7 284.3 439.3 320 440.5C355.7 441.7 391.3 450.3 426.8 457C462.3 463.7 497.7 468.3 533.2 462.7C568.7 457 604.3 441 640 432.2C675.7 423.3 711.3 421.7 746.8 424C782.3 426.3 817.7 432.7 853.2 441.8C888.7 451 924.3 463 942.2 469L960 475L960 541L942.2 541C924.3 541 888.7 541 853.2 541C817.7 541 782.3 541 746.8 541C711.3 541 675.7 541 640 541C604.3 541 568.7 541 533.2 541C497.7 541 462.3 541 426.8 541C391.3 541 355.7 541 320 541C284.3 541 248.7 541 213.2 541C177.7 541 142.3 541 106.8 541C71.3 541 35.7 541 17.8 541L0 541Z" fill="#5368ef"></path><path d="M0 507L17.8 509.2C35.7 511.3 71.3 515.7 106.8 511.7C142.3 507.7 177.7 495.3 213.2 491.2C248.7 487 284.3 491 320 493.7C355.7 496.3 391.3 497.7 426.8 501.3C462.3 505 497.7 511 533.2 509.7C568.7 508.3 604.3 499.7 640 491.2C675.7 482.7 711.3 474.3 746.8 477C782.3 479.7 817.7 493.3 853.2 493.8C888.7 494.3 924.3 481.7 942.2 475.3L960 469L960 541L942.2 541C924.3 541 888.7 541 853.2 541C817.7 541 782.3 541 746.8 541C711.3 541 675.7 541 640 541C604.3 541 568.7 541 533.2 541C497.7 541 462.3 541 426.8 541C391.3 541 355.7 541 320 541C284.3 541 248.7 541 213.2 541C177.7 541 142.3 541 106.8 541C71.3 541 35.7 541 17.8 541L0 541Z" fill="#4f47e5"></path></svg>