<svg id="visual" viewBox="0 0 960 540" width="960" height="540" xmlns="http://www.w3.org/2000/svg" xmlns:xlink="http://www.w3.org/1999/xlink" version="1.1"><rect x="0" y="0" width="960" height="540" fill="#e2e8f0"></rect><path d="M0 294L14.5 292.7C29 291.3 58 288.7 87.2 287C116.3 285.3 145.7 284.7 174.8 287.5C204 290.3 233 296.7 262 306.7C291 316.7 320 330.3 349 331.5C378 332.7 407 321.3 436.2 320.5C465.3 319.7 494.7 329.3 523.8 336.8C553 344.3 582 349.7 611 350.5C640 351.3 669 347.7 698 343.2C727 338.7 756 333.3 785.2 331C814.3 328.7 843.7 329.3 872.8 329.8C902 330.3 931 330.7 945.5 330.8L960 331L960 541L945.5 541C931 541 902 541 872.8 541C843.7 541 814.3 541 785.2 541C756 541 727 541 698 541C669 541 640 541 611 541C582 541 553 541 523.8 541C494.7 541 465.3 541 436.2 541C407 541 378 541 349 541C320 541 291 541 262 541C233 541 204 541 174.8 541C145.7 541 116.3 541 87.2 541C58 541 29 541 14.5 541L0 541Z" fill="#e2e8f0"></path><path d="M0 324L14.5 333C29 342 58 360 87.2 363.3C116.3 366.7 145.7 355.3 174.8 352.2C204 349 233 354 262 360.5C291 367 320 375 349 380.2C378 385.3 407 387.7 436.2 385.8C465.3 384 494.7 378 523.8 366.5C553 355 582 338 611 334C640 330 669 339 698 347.8C727 356.7 756 365.3 785.2 365.7C814.3 366 843.7 358 872.8 349.7C902 341.3 931 332.7 945.5 328.3L960 324L960 541L945.5 541C931 541 902 541 872.8 541C843.7 541 814.3 541 785.2 541C756 541 727 541 698 541C669 541 640 541 611 541C582 541 553 541 523.8 541C494.7 541 465.3 541 436.2 541C407 541 378 541 349 541C320 541 291 541 262 541C233 541 204 541 174.8 541C145.7 541 116.3 541 87.2 541C58 541 29 541 14.5 541L0 541Z" fill="#b4ccf4"></path><path d="M0 359L14.5 369.2C29 379.3 58 399.7 87.2 407.2C116.3 414.7 145.7 409.3 174.8 406.3C204 403.3 233 402.7 262 400.5C291 398.3 320 394.7 349 396.3C378 398 407 405 436.2 400.3C465.3 395.7 494.7 379.3 523.8 375.2C553 371 582 379 611 383.7C640 388.3 669 389.7 698 387C727 384.3 756 377.7 785.2 378.7C814.3 379.7 843.7 388.3 872.8 387.7C902 387 931 377 945.5 372L960 367L960 541L945.5 541C931 541 902 541 872.8 541C843.7 541 814.3 541 785.2 541C756 541 727 541 698 541C669 541 640 541 611 541C582 541 553 541 523.8 541C494.7 541 465.3 541 436.2 541C407 541 378 541 349 541C320 541 291 541 262 541C233 541 204 541 174.8 541C145.7 541 116.3 541 87.2 541C58 541 29 541 14.5 541L0 541Z" fill="#8baff7"></path><path d="M0 411L14.5 413.7C29 416.3 58 421.7 87.2 423.5C116.3 425.3 145.7 423.7 174.8 420.3C204 417 233 412 262 408.7C291 405.3 320 403.7 349 408C378 412.3 407 422.7 436.2 428.7C465.3 434.7 494.7 436.3 523.8 435C553 433.7 582 429.3 611 429.8C640 430.3 669 435.7 698 438C727 440.3 756 439.7 785.2 435C814.3 430.3 843.7 421.7 872.8 418.3C902 415 931 417 945.5 418L960 419L960 541L945.5 541C931 541 902 541 872.8 541C843.7 541 814.3 541 785.2 541C756 541 727 541 698 541C669 541 640 541 611 541C582 541 553 541 523.8 541C494.7 541 465.3 541 436.2 541C407 541 378 541 349 541C320 541 291 541 262 541C233 541 204 541 174.8 541C145.7 541 116.3 541 87.2 541C58 541 29 541 14.5 541L0 541Z" fill="#6b8ff6"></path><path d="M0 477L14.5 472.3C29 467.7 58 458.3 87.2 451.3C116.3 444.3 145.7 439.7 174.8 444.3C204 449 233 463 262 469.5C291 476 320 475 349 474.2C378 473.3 407 472.7 436.2 466.3C465.3 460 494.7 448 523.8 449C553 450 582 464 611 471.5C640 479 669 480 698 479.5C727 479 756 477 785.2 471.5C814.3 466 843.7 457 872.8 457.2C902 457.3 931 466.7 945.5 471.3L960 476L960 541L945.5 541C931 541 902 541 872.8 541C843.7 541 814.3 541 785.2 541C756 541 727 541 698 541C669 541 640 541 611 541C582 541 553 541 523.8 541C494.7 541 465.3 541 436.2 541C407 541 378 541 349 541C320 541 291 541 262 541C233 541 204 541 174.8 541C145.7 541 116.3 541 87.2 541C58 541 29 541 14.5 541L0 541Z" fill="#556ef1"></path><path d="M0 482L14.5 483.5C29 485 58 488 87.2 491.7C116.3 495.3 145.7 499.7 174.8 502.5C204 505.3 233 506.7 262 504C291 501.3 320 494.7 349 493.2C378 491.7 407 495.3 436.2 496.2C465.3 497 494.7 495 523.8 492.2C553 489.3 582 485.7 611 486.5C640 487.3 669 492.7 698 493C727 493.3 756 488.7 785.2 490.8C814.3 493 843.7 502 872.8 503.7C902 505.3 931 499.7 945.5 496.8L960 494L960 541L945.5 541C931 541 902 541 872.8 541C843.7 541 814.3 541 785.2 541C756 541 727 541 698 541C669 541 640 541 611 541C582 541 553 541 523.8 541C494.7 541 465.3 541 436.2 541C407 541 378 541 349 541C320 541 291 541 262 541C233 541 204 541 174.8 541C145.7 541 116.3 541 87.2 541C58 541 29 541 14.5 541L0 541Z" fill="#4f47e5"></path></svg>